<?xml version="1.0" standalone="no"?>
<!DOCTYPE svg PUBLIC "-//W3C//DTD SVG 20010904//EN"
 "http://www.w3.org/TR/2001/REC-SVG-20010904/DTD/svg10.dtd">
<svg version="1.0" xmlns="http://www.w3.org/2000/svg"
 width="740.000000pt" height="740.000000pt" viewBox="0 0 740.000000 740.000000"
 preserveAspectRatio="xMidYMid meet">
<metadata>
Created by potrace 1.11, written by Peter Selinger 2001-2013
</metadata>
<g transform="translate(0.000000,740.000000) scale(0.100000,-0.100000)"
fill="#000000" stroke="none">
<path d="M0 6232 l0 -138 196 0 c120 1 198 -3 203 -9 4 -5 7 -262 6 -571 l-1
-560 156 -1 155 0 0 551 c0 303 1 560 3 571 3 19 11 20 193 19 153 -1 193 2
205 13 8 8 12 18 9 23 -3 5 -5 37 -5 72 1 54 0 98 -3 156 0 9 -119 12 -559 12
l-558 0 0 -138z"/>
<path d="M1558 6331 c-2 -21 0 -52 3 -69 3 -17 4 -34 1 -37 -3 -3 -4 -49 -3
-103 1 -53 2 -104 2 -112 -1 -18 -1 -101 0 -115 1 -5 0 -30 0 -55 -1 -59 -1
-105 0 -190 0 -8 -1 -144 -1 -302 -1 -158 1 -292 5 -298 3 -5 2 -10 -3 -10 -4
0 -6 -19 -3 -42 l6 -43 148 -1 c105 -1 150 2 153 10 2 6 6 144 7 306 l2 295
298 0 c163 1 298 -2 298 -5 1 -3 2 -140 3 -305 l1 -300 155 0 155 0 2 708 1
707 -154 0 c-85 0 -155 -3 -155 -7 -1 -5 -2 -123 -3 -263 l-1 -255 -303 -1
-302 -1 0 263 0 264 -154 0 -154 0 -4 -39z"/>
<path d="M3210 5661 l0 -708 500 0 501 0 -3 145 -3 145 -58 1 c-33 0 -61 -2
-64 -7 -2 -4 -9 -4 -15 -1 -5 3 -130 6 -278 6 l-268 1 -4 28 c-3 16 -1 29 4
29 5 0 7 4 3 10 -6 9 -8 69 -6 167 l1 53 307 2 306 3 0 125 c-1 69 -2 132 -2
141 -1 15 -30 17 -301 17 -166 0 -304 2 -307 5 -5 6 -8 109 -3 132 1 6 1 15 0
20 -4 20 -2 97 3 102 3 3 150 5 326 5 l321 1 0 143 0 144 -480 0 -480 0 0
-709z"/>
<path d="M5179 6349 c-283 -79 -470 -279 -527 -564 -11 -52 -6 -243 7 -287 18
-61 74 -192 83 -196 4 -2 8 -10 8 -18 0 -8 4 -14 9 -14 5 0 12 -8 15 -18 9
-28 117 -134 179 -176 77 -50 154 -83 246 -104 69 -16 143 -18 821 -17 736 1
746 1 823 23 205 58 357 183 453 372 54 107 74 201 70 335 -5 182 -65 329
-189 462 -57 61 -183 153 -210 153 -7 0 -17 4 -23 9 -5 5 -40 20 -79 33 l-70
23 -775 1 c-727 2 -779 1 -841 -17z"/>
<path d="M50 4388 c-1 -25 -1 -136 0 -906 l0 -493 153 3 152 3 2 40 c1 22 2
163 2 313 0 149 1 307 1 350 0 90 0 232 -2 241 0 3 0 38 1 76 l2 70 45 -140
c25 -77 50 -149 54 -160 5 -11 59 -173 120 -360 61 -187 117 -353 123 -370 12
-30 13 -36 16 -55 1 -6 48 -10 120 -10 l119 0 12 33 c6 17 54 158 106 312 53
154 99 289 104 300 8 19 23 64 25 75 0 4 47 139 63 180 3 8 6 18 7 23 2 4 4 9
5 12 1 3 3 8 4 13 6 27 39 113 44 116 4 2 7 -235 7 -527 l0 -532 157 -3 156
-2 0 710 0 710 -236 -2 -236 -3 -26 -75 c-15 -41 -39 -109 -54 -150 -15 -41
-29 -82 -31 -90 -4 -14 -68 -195 -82 -230 -3 -8 -27 -78 -54 -155 -27 -77 -52
-147 -56 -155 -3 -8 -7 -21 -9 -29 -7 -33 -22 -32 -34 4 -7 20 -13 42 -14 48
-1 7 -7 21 -13 32 -6 11 -15 36 -21 55 -6 19 -36 107 -67 195 -31 88 -85 241
-120 340 -35 99 -66 188 -70 198 -7 15 -28 17 -241 17 l-234 0 0 -22z"/>
<path d="M2618 4395 c-27 -6 -48 -11 -48 -9 0 4 -74 -22 -118 -42 -167 -77
-318 -246 -372 -418 -26 -83 -32 -117 -35 -216 -5 -191 71 -377 209 -513 55
-55 174 -136 207 -142 12 -2 26 -8 33 -13 31 -23 122 -41 235 -46 324 -13 618
211 701 534 33 130 21 300 -32 440 -46 123 -181 277 -298 342 -61 33 -159 72
-212 84 -51 12 -225 11 -270 -1z"/>
<path d="M3623 4398 c3 -7 69 -173 147 -368 77 -195 145 -364 150 -375 5 -11
41 -101 80 -200 40 -99 80 -199 91 -222 10 -24 19 -49 19 -56 0 -7 4 -17 8
-22 5 -6 22 -44 38 -86 l29 -77 127 1 c71 0 128 4 128 9 0 4 11 31 23 60 13
29 30 69 37 88 7 19 24 60 38 90 13 30 25 60 27 65 1 6 7 21 12 35 6 14 34 81
62 150 29 69 61 144 71 166 11 23 22 54 26 68 3 14 10 29 15 32 5 3 9 11 9 18
0 8 10 35 22 62 12 27 23 51 23 54 1 3 7 16 12 30 6 14 32 77 58 140 26 63 55
134 66 157 10 23 19 46 19 51 0 4 9 27 20 50 11 23 25 53 30 66 l9 24 -164 1
c-148 2 -165 0 -173 -16 -6 -10 -44 -108 -87 -218 -42 -110 -97 -254 -123
-320 -25 -66 -47 -122 -47 -125 -1 -10 -67 -176 -84 -215 -18 -38 -19 -38 -25
-15 -4 14 -11 34 -16 45 -4 11 -31 83 -60 160 -28 77 -55 149 -60 160 -18 41
-152 401 -161 432 -5 18 -16 45 -24 60 -8 15 -15 34 -15 41 0 9 -43 12 -181
12 -141 0 -180 -3 -176 -12z"/>
<path d="M5484 3703 l1 -708 153 -1 c83 0 153 2 153 5 4 16 5 1388 1 1399 -3
9 -43 12 -156 12 l-153 0 1 -707z"/>
<path d="M6371 3702 l-1 -709 500 0 500 0 0 141 0 142 -27 3 c-16 1 -35 3 -43
2 -42 -1 -119 -2 -126 0 -5 1 -13 1 -19 0 -27 -5 -297 -1 -305 4 -5 3 -11 2
-13 -2 -3 -5 -38 -7 -79 -5 l-75 3 0 145 0 144 307 0 307 0 -1 143 -1 142
-300 1 c-165 1 -303 2 -306 3 -3 1 -6 59 -6 130 l0 129 29 4 c15 3 28 1 28 -3
0 -4 8 -5 18 -3 29 7 222 9 222 2 0 -3 8 -4 18 -2 26 6 142 10 142 4 0 -3 25
-5 55 -5 30 0 55 2 55 5 0 3 19 6 41 5 l41 0 2 143 1 142 -481 0 -481 0 -2
-708z"/>
<path d="M758 2445 c-2 -2 -24 -6 -49 -9 -86 -12 -199 -58 -287 -118 -77 -53
-202 -193 -202 -227 0 -6 -3 -11 -8 -11 -13 0 -67 -145 -78 -211 -65 -394 176
-744 571 -828 17 -3 653 -6 1415 -6 1329 0 1387 1 1445 19 136 43 226 95 316
185 81 82 121 145 177 283 32 79 37 307 8 403 -75 252 -256 430 -511 502 -55
15 -177 17 -1427 19 -752 1 -1368 0 -1370 -1z"/>
<path d="M4535 2440 c-3 -5 -5 -324 -4 -710 l2 -701 326 4 c179 2 344 8 366
12 22 4 80 20 128 37 229 76 386 231 456 449 20 63 23 82 26 191 3 115 -9 201
-36 273 -67 174 -175 291 -344 368 -42 19 -158 53 -210 61 -16 2 -30 5 -30 6
0 12 -672 22 -680 10z m675 -305 c30 -9 63 -19 73 -22 9 -3 17 -9 17 -14 0 -5
9 -9 20 -9 11 0 20 -4 20 -10 0 -5 5 -10 12 -10 19 0 96 -87 122 -139 78 -152
43 -374 -75 -489 -71 -68 -216 -123 -315 -118 -19 1 -34 -1 -34 -4 0 -7 -136
-3 -149 4 -5 4 -12 2 -16 -4 -4 -7 -12 -7 -23 -1 -16 9 -17 46 -17 425 l0 415
155 -4 c106 -2 172 -9 210 -20z"/>
<path d="M6290 1739 l0 -710 358 4 c196 2 371 7 387 11 85 20 115 30 165 57
145 77 208 189 198 347 -11 156 -91 256 -251 312 -42 14 -48 19 -32 25 87 31
152 86 189 162 33 64 41 173 19 248 -40 133 -135 204 -323 241 -19 3 -187 8
-372 10 l-338 4 0 -711z m619 431 c52 -14 110 -67 112 -102 6 -89 -20 -137
-89 -165 -39 -17 -71 -20 -189 -21 l-143 -1 -1 32 c-1 18 -1 41 0 52 0 11 1
63 2 115 1 52 3 97 4 100 6 10 261 2 304 -10z m59 -570 c24 -8 59 -28 79 -46
29 -27 36 -40 38 -80 4 -57 -9 -90 -49 -127 -44 -40 -93 -50 -271 -51 l-160
-1 -2 150 c-1 83 0 155 2 161 5 16 307 11 363 -6z"/>
</g>
</svg>
